<?xml version="1.0" standalone="no"?>
<!DOCTYPE svg PUBLIC "-//W3C//DTD SVG 20010904//EN"
 "http://www.w3.org/TR/2001/REC-SVG-20010904/DTD/svg10.dtd">
<svg version="1.0" xmlns="http://www.w3.org/2000/svg"
 width="512.000000pt" height="512.000000pt" viewBox="0 0 512.000000 512.000000"
 preserveAspectRatio="xMidYMid meet">
<metadata>
Created by potrace 1.11, written by Peter Selinger 2001-2013
</metadata>
<g transform="translate(0.000000,512.000000) scale(0.100000,-0.100000)"
fill="#000000" stroke="none">
<path d="M1820 5080 c-268 -47 -487 -442 -575 -1035 -13 -91 -17 -111 -26
-127 -5 -10 -7 -18 -5 -18 3 0 -8 -39 -25 -86 -68 -193 -195 -381 -370 -549
-93 -88 -223 -195 -238 -195 -5 0 -11 -4 -13 -9 -6 -17 -186 -127 -323 -197
-116 -59 -143 -77 -157 -105 -21 -41 -15 -86 15 -116 32 -32 288 -117 600
-197 53 -14 101 -27 106 -30 4 -3 8 -24 9 -46 2 -40 33 -174 51 -224 8 -19 5
-28 -15 -47 -57 -54 -108 -157 -120 -244 -11 -87 29 -208 94 -280 42 -48 113
-100 157 -117 40 -16 54 -40 70 -127 20 -108 117 -319 211 -457 36 -55 69
-101 73 -104 3 -3 24 -27 46 -55 49 -61 198 -210 247 -247 20 -15 42 -33 50
-41 7 -7 37 -30 67 -52 331 -240 673 -355 941 -316 97 14 125 21 265 65 6 2
15 5 20 7 30 9 234 115 292 151 190 118 400 303 525 463 163 206 267 422 322
666 4 20 21 34 68 57 102 50 183 143 220 253 20 59 15 161 -12 229 -22 57 -81
144 -106 158 -13 7 -11 21 10 95 24 82 34 132 38 200 1 15 9 29 18 31 8 3 49
12 90 22 41 9 140 34 220 56 80 22 150 41 155 42 6 1 50 15 99 32 106 35 146
67 146 121 0 63 -22 83 -162 152 -139 68 -335 194 -452 289 -243 199 -422 437
-501 669 -24 70 -56 214 -69 313 -26 192 -100 433 -183 595 -128 251 -279 367
-463 360 -166 -7 -347 -137 -485 -348 -70 -107 -130 -143 -209 -125 -59 13
-92 42 -151 132 -165 248 -370 371 -565 336z m148 -205 c51 -12 141 -102 218
-218 81 -121 117 -157 204 -200 62 -31 70 -32 180 -32 105 1 120 3 170 28 85
42 123 79 202 195 115 168 200 240 283 237 139 -5 274 -174 363 -457 44 -137
90 -358 88 -415 -1 -18 1 -33 5 -33 3 0 9 -22 12 -50 12 -101 95 -315 173
-444 107 -179 302 -392 490 -537 76 -59 283 -199 294 -199 66 0 -167 -71 -375
-114 -5 -2 -35 -8 -65 -14 -77 -16 -105 -22 -185 -37 -122 -23 -140 -27 -160
-30 -11 -1 -49 -7 -85 -13 -36 -6 -85 -13 -110 -16 -25 -4 -58 -8 -75 -11 -70
-12 -94 -15 -160 -20 -38 -3 -81 -8 -95 -10 -14 -3 -61 -7 -105 -11 -44 -3
-96 -8 -115 -9 -277 -26 -1072 -25 -1200 0 -14 3 -51 6 -82 7 -32 1 -58 5 -58
8 0 3 -21 5 -48 6 -55 1 -151 11 -242 25 -36 6 -78 13 -95 15 -94 14 -285 46
-315 54 -19 5 -46 11 -60 14 -78 14 -281 63 -411 99 l-150 43 38 21 c21 12 69
42 106 67 38 25 72 46 77 46 5 0 10 3 12 8 2 4 32 29 68 56 79 60 188 156 254
224 28 28 54 48 59 45 6 -3 7 -1 3 5 -3 6 0 16 7 24 32 33 127 159 164 218 80
129 123 223 169 375 22 71 28 97 39 183 24 175 92 459 117 487 4 5 8 15 8 23
0 7 14 43 32 80 72 152 156 246 247 278 37 13 52 13 109 -1z m2137 -2553 c-26
-111 -25 -110 -97 -111 -35 0 -83 -7 -107 -16 -24 -8 -47 -15 -50 -15 -7 0
-11 35 -14 115 l-2 39 87 16 c63 12 91 14 99 6 9 -8 10 -8 5 1 -6 11 15 18 71
22 21 1 21 0 8 -57z m-2955 28 c30 -6 68 -13 83 -15 90 -12 89 -11 83 -73 -3
-32 -5 -64 -5 -74 -1 -15 -6 -14 -53 4 -33 12 -78 20 -119 20 l-67 0 -17 62
c-9 33 -19 69 -22 79 -5 20 -1 20 117 -3z m2471 -72 c1 -13 3 -36 4 -53 4 -35
12 -126 21 -222 6 -75 25 -110 68 -131 44 -22 89 -7 137 43 97 102 226 110
310 18 40 -43 55 -144 28 -196 -29 -57 -68 -83 -138 -93 -77 -11 -92 -17 -114
-46 -12 -16 -22 -41 -23 -56 -1 -24 -14 -112 -20 -137 -38 -156 -83 -263 -165
-397 -176 -287 -481 -544 -792 -667 -263 -105 -474 -102 -742 10 -74 31 -234
115 -245 129 -3 3 -22 16 -43 29 -21 13 -43 28 -50 34 -6 7 -30 25 -52 42 -44
32 -62 49 -177 163 -43 42 -78 79 -78 83 0 4 -16 24 -36 45 -20 22 -43 53 -51
69 -9 17 -19 32 -23 35 -11 7 -65 104 -101 179 -44 93 -76 195 -89 286 -19
133 -27 154 -66 177 -19 11 -56 22 -83 23 -27 2 -58 8 -69 14 -48 26 -96 112
-88 159 2 9 6 34 10 55 9 49 53 91 117 112 84 28 167 1 240 -80 39 -43 84 -53
132 -30 50 24 59 48 72 195 2 30 7 82 11 115 4 33 7 69 8 80 1 15 8 20 26 19
31 -1 166 -14 200 -19 34 -5 123 -13 260 -22 236 -16 991 -8 1150 12 19 3 62
7 95 9 76 6 164 15 235 25 114 14 120 14 121 -11z"/>
<path d="M1234 3209 c-27 -13 -54 -60 -54 -92 0 -61 35 -98 106 -112 59 -11
160 -27 199 -31 22 -2 49 -6 60 -9 22 -5 157 -20 260 -30 33 -3 74 -8 90 -10
205 -27 974 -27 1285 0 273 24 531 57 665 85 60 12 85 44 85 107 -1 42 -12 61
-52 87 -27 17 -72 18 -159 1 -13 -3 -41 -7 -64 -10 -22 -4 -51 -8 -65 -10 -14
-2 -50 -6 -80 -10 -30 -3 -66 -8 -80 -10 -14 -2 -50 -7 -80 -10 -133 -12 -172
-16 -207 -20 -192 -19 -775 -26 -1013 -12 -206 13 -406 31 -470 42 -14 3 -50
7 -80 10 -30 3 -62 8 -70 10 -8 3 -33 7 -55 10 -22 2 -65 9 -94 15 -65 12 -99
12 -127 -1z"/>
<path d="M2018 2065 c-124 -31 -209 -140 -204 -259 2 -44 10 -66 38 -109 39
-57 109 -111 161 -123 18 -3 35 -12 39 -18 6 -8 8 -7 8 2 0 6 12 12 28 12 44
0 129 48 167 94 37 46 67 118 63 151 -1 11 1 26 5 33 5 6 4 12 -1 12 -5 0 -14
17 -20 38 -23 76 -117 157 -201 172 -21 4 -58 2 -83 -5z m83 -220 c1 -8 2 -22
2 -30 0 -32 -4 -35 -37 -35 -36 0 -49 20 -39 60 7 25 72 29 74 5z"/>
<path d="M3055 2073 c-74 -14 -160 -76 -195 -142 -18 -35 -24 -64 -26 -118 -1
-40 1 -73 5 -73 3 0 15 -16 26 -36 40 -74 137 -134 219 -136 124 -2 250 125
250 252 -1 138 -152 276 -279 253z m66 -228 c1 -8 2 -22 2 -30 0 -32 -4 -35
-37 -35 -41 0 -53 25 -37 78 1 1 17 2 36 2 24 0 35 -5 36 -15z"/>
<path d="M2522 1374 c-7 -3 -30 -23 -50 -43 -39 -39 -111 -91 -134 -95 -7 -2
-22 -7 -33 -12 -58 -25 -176 1 -245 56 -34 26 -71 31 -106 14 -34 -17 -64 -61
-64 -96 0 -114 252 -217 445 -183 48 9 170 64 204 92 l25 20 54 -35 c88 -56
154 -76 263 -79 101 -2 152 8 243 51 45 21 115 77 117 95 0 3 2 15 4 25 9 50
-44 115 -96 118 -44 2 -54 -2 -88 -31 -37 -32 -122 -60 -167 -56 -89 7 -148
37 -225 112 -38 37 -55 46 -90 49 -24 2 -50 1 -57 -2z"/>
<path d="M2373 840 c-25 -10 -56 -53 -60 -83 -2 -11 6 -39 18 -63 26 -55 39
-58 261 -57 141 0 171 3 193 17 27 17 57 74 49 88 -3 5 1 8 8 8 9 0 10 3 2 8
-6 4 -15 17 -19 30 -4 13 -21 32 -38 43 -29 17 -51 19 -212 18 -99 0 -190 -4
-202 -9z"/>
</g>
</svg>
