<?xml version="1.0" encoding="UTF-8" standalone="no"?>
<!-- Created with Inkscape (http://www.inkscape.org/) -->

<svg
   xmlns:dc="http://purl.org/dc/elements/1.1/"
   xmlns:cc="http://creativecommons.org/ns#"
   xmlns:rdf="http://www.w3.org/1999/02/22-rdf-syntax-ns#"
   xmlns:svg="http://www.w3.org/2000/svg"
   xmlns="http://www.w3.org/2000/svg"
   xmlns:sodipodi="http://sodipodi.sourceforge.net/DTD/sodipodi-0.dtd"
   xmlns:inkscape="http://www.inkscape.org/namespaces/inkscape"
   width="744.09448"
   height="1052.3622"
   id="svg2"
   version="1.1"
   inkscape:version="0.91pre2 r13516"
   viewBox="0 0 744.09448 1052.3622"
   sodipodi:docname="drawing.svg">
  <defs
     id="defs4" />
  <sodipodi:namedview
     id="base"
     pagecolor="#ffffff"
     bordercolor="#666666"
     borderopacity="1.0"
     inkscape:pageopacity="0.0"
     inkscape:pageshadow="2"
     inkscape:zoom="0.7"
     inkscape:cx="504.37306"
     inkscape:cy="549.62397"
     inkscape:document-units="px"
     inkscape:current-layer="layer1"
     showgrid="false"
     inkscape:window-width="1366"
     inkscape:window-height="744"
     inkscape:window-x="0"
     inkscape:window-y="24"
     inkscape:window-maximized="1" />
  <metadata
     id="metadata7">
    <rdf:RDF>
      <cc:Work
         rdf:about="">
        <dc:format>image/svg+xml</dc:format>
        <dc:type
           rdf:resource="http://purl.org/dc/dcmitype/StillImage" />
        <dc:title></dc:title>
      </cc:Work>
    </rdf:RDF>
  </metadata>
  <g
     inkscape:label="Layer 1"
     inkscape:groupmode="layer"
     id="layer1">
    <rect
       style="opacity:1;fill:#ffffff;fill-opacity:1;stroke:none;stroke-width:3.01556969;stroke-linecap:round;stroke-linejoin:miter;stroke-miterlimit:0;stroke-dasharray:none;stroke-dashoffset:0;stroke-opacity:1"
       id="rect4299"
       width="551.41296"
       height="542.84155"
       x="68.579201"
       y="207.79855"
       ry="32.857143"
       inkscape:export-xdpi="90"
       inkscape:export-ydpi="90" />
    <circle
       style="opacity:1;fill:#ffffff;fill-opacity:1;stroke:none;stroke-width:2.7500596;stroke-linecap:round;stroke-linejoin:miter;stroke-miterlimit:0;stroke-dasharray:none;stroke-dashoffset:0;stroke-opacity:1"
       id="path4232"
       cx="343.28571"
       cy="479.07648"
       r="273.69641"
       inkscape:export-xdpi="90"
       inkscape:export-ydpi="90" />
    <path
       style="fill:#000000"
       d="m 328.1381,729.3725 c -36.31135,-6.55732 -80.66195,-35.68074 -107.78959,-70.78149 -15.51909,-20.08031 -25.2791,-40.66187 -30.21483,-63.71595 -0.42662,-1.99267 -2.06336,-3.3454 -6.97121,-5.76153 -4.31795,-2.12571 -8.37654,-5.25573 -12.42065,-9.57889 -7.70427,-8.2359 -10.52743,-15.08917 -10.52743,-25.55551 0,-9.46739 2.5881,-16.4412 9.10261,-24.52756 l 4.78766,-5.94284 -2.32238,-8.0148 c -1.27731,-4.40814 -2.58879,-10.55978 -2.9144,-13.6703 -0.32561,-3.11053 -0.89651,-6.14818 -1.26867,-6.75035 -0.37216,-0.60217 -8.975,-3.31672 -19.11742,-6.03234 -25.26767,-6.76538 -49.267848,-14.66076 -51.261317,-16.86352 -3.101876,-3.42754 -3.947612,-7.62072 -2.32184,-11.51174 1.310795,-3.13717 3.066665,-4.34058 15.647477,-10.72419 40.69529,-20.64912 73.71856,-50.67842 88.9568,-80.89177 5.29853,-10.50554 9.14104,-23.46065 12.17636,-41.05281 6.47699,-37.53945 15.90274,-63.71542 29.10858,-80.83652 23.72209,-30.75519 56.76885,-25.30377 83.75601,13.81647 7.78564,11.28596 11.3277,14.00227 18.25889,14.00227 7.64389,0 11.76136,-2.88999 18.43061,-12.93615 3.12686,-4.71012 9.55293,-12.42867 14.28016,-17.15234 25.30001,-25.28095 53.24337,-23.05864 72.82353,5.79158 12.54724,18.48762 21.37843,44.64453 27.11013,80.29691 2.38638,14.84381 5.63003,25.26847 11.66818,37.5 15.23796,30.86766 49.12939,61.89941 89.18432,81.65917 6.74227,3.32607 13.15477,7.18661 14.25,8.57897 3.84167,4.88389 1.71093,12.74625 -4.21461,15.55179 -6.50402,3.07941 -36.87774,11.65228 -64.39883,18.17633 -1.80358,0.42755 -2.19637,1.48438 -2.74478,7.38501 -0.35199,3.78733 -1.71889,10.61101 -3.03754,15.16372 l -2.39755,8.27766 4.1492,5.10367 c 6.74462,8.29615 9.98803,16.66328 9.99663,25.78866 0.006,6.83067 -0.39595,8.49816 -3.61973,15 -4.41158,8.89747 -11.16526,15.7834 -19.81203,20.19999 l -6.36704,3.25216 -1.24299,6.14131 c -9.25912,45.74728 -50.18167,93.74262 -100.81939,118.24436 -25.45488,12.31668 -46.73416,16.19335 -67.90292,12.37057 z m 28.95701,-20.93076 c 42.80518,-7.4646 89.39023,-44.0536 109.44743,-85.96261 5.98248,-12.50023 9.49603,-24.65517 11.4957,-39.76874 0.97809,-7.39249 3.73715,-9.87622 12.08781,-10.88155 7.51685,-0.90494 10.61068,-2.6172 14.16497,-7.83954 2.93796,-4.31676 3.13191,-13.8934 0.38532,-19.02577 -2.28287,-4.26586 -10.72397,-8.9943 -15.99951,-8.96244 -5.26189,0.0318 -11.93503,3.39441 -17.42398,8.78002 -4.23362,4.15391 -5.29558,4.69802 -9.16943,4.69802 -3.23587,0 -5.04235,-0.62105 -6.90996,-2.37558 -3.09186,-2.90465 -3.23822,-3.58767 -5.15898,-24.07551 -0.84828,-9.04811 -1.7266,-16.63538 -1.95183,-16.86062 -0.22524,-0.22523 -6.62225,0.32697 -14.21558,1.22713 -54.45044,6.45483 -119.12269,7.22932 -171.30605,2.05147 -7.975,-0.79131 -16.32091,-1.70744 -18.54647,-2.03584 l -4.04647,-0.5971 -1.61044,17.33303 c -0.88574,9.53316 -2.16467,18.54883 -2.84208,20.03483 -1.22917,2.69635 -6.26931,5.79819 -9.42141,5.79819 -2.63043,0 -5.6409,-1.90779 -11.14247,-7.06118 -7.99632,-7.49026 -16.64529,-8.73384 -25.62857,-3.68495 -5.56732,3.12901 -7.96209,7.53956 -7.96209,14.6641 0,11.05701 4.73122,16.36201 15.9621,17.89793 3.32371,0.45454 7.1896,1.57766 8.59089,2.49582 2.64629,1.73392 4.62637,6.92569 4.64844,12.18828 0.0207,4.92565 3.70118,18.79142 7.46681,28.13003 17.81986,44.19251 67.66421,85.70199 112.71018,93.86301 9.91135,1.79565 15.94403,1.78869 26.37567,-0.0304 z m -34.84684,-38.47825 c -3.82129,-3.00582 -5.16153,-7.96136 -3.33528,-12.33219 2.48529,-5.94813 5.14473,-6.65217 25.12803,-6.65217 22.62617,0 25.5,1.24095 25.5,11.01118 0,3.2454 -0.63311,4.77578 -2.92308,7.06574 l -2.92307,2.92308 -19.44207,0 c -17.97814,0 -19.63501,-0.15177 -22.00453,-2.01564 z m -25.30338,-36.8172 c -18.59562,-5.4915 -26.35458,-16.36527 -17.42282,-24.41716 4.37993,-3.94846 9.14598,-3.73069 15.38182,0.70283 12.06007,8.57439 24.36724,6.70111 38.43352,-5.84999 8.86269,-7.90803 11.84429,-7.7171 21.87144,1.40056 8.74073,7.94793 18.75819,11.30533 27.06096,9.06963 2.24762,-0.60522 6.36727,-2.66924 9.15479,-4.58672 6.70276,-4.61068 11.96293,-4.79364 16.19334,-0.56323 2.35657,2.35656 2.92308,3.78712 2.92308,7.38134 0,3.70555 -0.54524,4.99134 -3.22941,7.61562 -7.35908,7.19485 -21.54901,11.60929 -34.77059,10.817 -9.46673,-0.56728 -16.48885,-2.92434 -24.29053,-8.15339 l -4.92678,-3.30216 -4.87721,3.28211 c -8.18655,5.50915 -15.24569,7.71007 -25.90548,8.0769 -7.00526,0.24106 -11.10087,-0.14584 -15.59613,-1.47334 z m -14.53565,-56.96734 c -9.17947,-4.79542 -15.93673,-16.22797 -14.5699,-24.65072 1.98852,-12.25383 13.49489,-22.5491 25.20168,-22.5491 12.34092,0 25.5,12.77706 25.5,24.75971 0,12.38345 -12.98913,25.24029 -25.5,25.24029 -3.83094,0 -6.73649,-0.76526 -10.63178,-2.80018 z m 14.63178,-20.19982 c 1.18326,-3.72814 -0.33131,-6 -4,-6 -3.66869,0 -5.18326,2.27186 -4,6 0.46911,1.47804 1.51303,2 4,2 2.48697,0 3.53089,-0.52196 4,-2 z m 88.93462,21.10959 c -9.3828,-4.26165 -16.45538,-14.19698 -16.41266,-23.05593 0.0611,-12.65808 12.68501,-25.08706 25.42438,-25.0317 17.26985,0.0751 30.37284,20.06825 22.74241,34.70148 -6.6283,12.71139 -20.42997,18.52956 -31.75413,13.38615 z m 12.56538,-23.16996 0,-4.06036 -3.75,0.31036 c -3.05062,0.25249 -3.81137,0.74356 -4.07908,2.6331 -0.55142,3.89206 0.51544,5.17727 4.2977,5.17727 3.46203,0 3.53138,-0.0797 3.53138,-4.06037 z m -180.11831,-45.11873 0.11831,-4.6791 -5.25,-1.02648 c -12.88938,-2.52012 -23.00561,-4.19304 -23.33906,-3.8596 -0.19945,0.19945 0.57814,3.82351 1.72796,8.05346 l 2.0906,7.69082 6.63525,0.0438 c 3.64939,0.0241 8.88525,0.81157 11.63525,1.75 l 5,1.70623 0.63169,-2.5 c 0.34742,-1.375 0.68492,-4.6056 0.75,-7.1791 z m 258.52724,7.66828 c 2.69991,-0.81905 7.72724,-1.48918 11.17183,-1.48918 l 6.26291,0 1.94649,-8.25 c 1.07057,-4.5375 1.79988,-8.41836 1.62069,-8.62414 -0.17918,-0.20577 -6.69127,0.68988 -14.4713,1.99035 l -14.14551,2.36448 0.60298,4.39923 c 0.33164,2.41957 0.60298,5.91142 0.60298,7.75965 0,3.8561 -0.1052,3.82574 6.40893,1.84961 z M 376.54102,490.95216 c 39.89197,-2.07447 80.17728,-7.04914 118,-14.57137 18.85298,-3.7495 57.80245,-12.87078 58.6715,-13.73983 0.13985,-0.13984 -5.98911,-4.37695 -13.6199,-9.4158 -36.82963,-24.31974 -62.48046,-52.86932 -75.55814,-84.09684 -4.77329,-11.3979 -7.11343,-19.99245 -9.5705,-35.14919 -7.28171,-44.91819 -18.33494,-71.51994 -34.23198,-82.38588 -13.39758,-9.15751 -23.41109,-4.15139 -39.73103,19.863 -11.05666,16.26959 -18.68889,21.17766 -34.59099,22.24447 -9.8611,0.66154 -19.3422,-1.81994 -26.55985,-6.9515 -5.37259,-3.81977 -6.40339,-5.04244 -14.66803,-17.3982 -9.61728,-14.37799 -19.63547,-22.4446 -27.7571,-22.34993 -1.03619,0.0121 -3.76962,0.87805 -6.07429,1.92438 -16.91577,7.67985 -30.88704,36.72544 -37.30423,77.55366 -1.1238,7.15 -2.5228,15.25 -3.10889,18 -3.67126,17.22603 -13.33189,38.5864 -24.64511,54.49218 -13.4991,18.979 -39.7427,42.64314 -64.41638,58.08495 -4.76571,2.98258 -8.59071,5.49593 -8.5,5.58523 0.67828,0.66772 33.34013,9.0831 47.58168,12.25949 61.40305,13.69517 131.32373,19.4188 196.08324,16.05118 z m -71,-45.57319 c -39.2104,-2.66584 -51.97836,-3.96889 -77.07684,-7.86617 -17.5185,-2.72025 -19.89529,-3.52361 -22.25789,-7.52317 -2.74763,-4.65138 -2.15317,-8.7226 1.85957,-12.73534 4.06819,-4.06819 2.06698,-4.0728 29.47516,0.0679 67.34863,10.17463 138.40545,10.01209 211.98054,-0.48489 20.56772,-2.93441 21.61448,-2.99251 24.63237,-1.36727 6.01577,3.23971 7.36634,11.68372 2.62681,16.42326 -2.3591,2.3591 -4.31078,3.00176 -13.42847,4.42182 -40.62657,6.32749 -70.61148,8.69406 -115.31125,9.10099 -20.35,0.18526 -39.475,0.16856 -42.5,-0.0371 z"
       id="path4230"
       inkscape:connector-curvature="0"
       inkscape:export-xdpi="90"
       inkscape:export-ydpi="90" />
  </g>
</svg>
